<?xml version="1.0" encoding="UTF-8" standalone="no"?>
<svg
   width="1920"
   height="1080"
   viewBox="0 0 1920 1080"
   version="1.1"
   id="svg62"
   sodipodi:docname="sleepylinux.svg"
   inkscape:version="1.4 (e7c3feb100, 2024-10-09)"
   xmlns:inkscape="http://www.inkscape.org/namespaces/inkscape"
   xmlns:sodipodi="http://sodipodi.sourceforge.net/DTD/sodipodi-0.dtd"
   xmlns="http://www.w3.org/2000/svg"
   xmlns:svg="http://www.w3.org/2000/svg">
  <defs
     id="defs62" />
  <sodipodi:namedview
     id="namedview62"
     pagecolor="#ffffff"
     bordercolor="#000000"
     borderopacity="0.25"
     inkscape:showpageshadow="2"
     inkscape:pageopacity="0.0"
     inkscape:pagecheckerboard="0"
     inkscape:deskcolor="#d1d1d1"
     inkscape:zoom="0.53033009"
     inkscape:cx="930.55252"
     inkscape:cy="509.11688"
     inkscape:window-width="1920"
     inkscape:window-height="1013"
     inkscape:window-x="0"
     inkscape:window-y="0"
     inkscape:window-maximized="1"
     inkscape:current-layer="svg62" />
  <!-- Background -->
  <rect
     width="1920"
     height="1080"
     fill="#1e2d45"
     id="rect1" />
  <!-- Network grid background -->
  <g
     stroke="#3a5a7a"
     stroke-width="1"
     opacity="0.35"
     id="g26">
    <line
       x1="160"
       y1="120"
       x2="320"
       y2="200"
       id="line1" />
    <line
       x1="320"
       y1="200"
       x2="500"
       y2="150"
       id="line2" />
    <line
       x1="500"
       y1="150"
       x2="700"
       y2="210"
       id="line3" />
    <line
       x1="700"
       y1="210"
       x2="960"
       y2="130"
       id="line4" />
    <line
       x1="960"
       y1="130"
       x2="1200"
       y2="175"
       id="line5" />
    <line
       x1="1200"
       y1="175"
       x2="1450"
       y2="140"
       id="line6" />
    <line
       x1="1450"
       y1="140"
       x2="1700"
       y2="180"
       id="line7" />
    <line
       x1="1700"
       y1="180"
       x2="1880"
       y2="130"
       id="line8" />
    <circle
       cx="160"
       cy="120"
       r="5"
       fill="#3a5a7a"
       id="circle8" />
    <circle
       cx="320"
       cy="200"
       r="5"
       fill="#3a5a7a"
       id="circle9" />
    <circle
       cx="500"
       cy="150"
       r="5"
       fill="#3a5a7a"
       id="circle10" />
    <circle
       cx="700"
       cy="210"
       r="5"
       fill="#3a5a7a"
       id="circle11" />
    <circle
       cx="960"
       cy="130"
       r="5"
       fill="#3a5a7a"
       id="circle12" />
    <circle
       cx="1200"
       cy="175"
       r="5"
       fill="#3a5a7a"
       id="circle13" />
    <circle
       cx="1450"
       cy="140"
       r="5"
       fill="#3a5a7a"
       id="circle14" />
    <circle
       cx="1700"
       cy="180"
       r="5"
       fill="#3a5a7a"
       id="circle15" />
    <circle
       cx="1880"
       cy="130"
       r="5"
       fill="#3a5a7a"
       id="circle16" />
    <line
       x1="100"
       y1="900"
       x2="300"
       y2="870"
       id="line16" />
    <line
       x1="300"
       y1="870"
       x2="480"
       y2="920"
       id="line17" />
    <line
       x1="480"
       y1="920"
       x2="680"
       y2="890"
       id="line18" />
    <circle
       cx="100"
       cy="900"
       r="5"
       fill="#3a5a7a"
       id="circle18" />
    <circle
       cx="300"
       cy="870"
       r="5"
       fill="#3a5a7a"
       id="circle19" />
    <circle
       cx="480"
       cy="920"
       r="5"
       fill="#3a5a7a"
       id="circle20" />
    <circle
       cx="680"
       cy="890"
       r="5"
       fill="#3a5a7a"
       id="circle21" />
    <line
       x1="1300"
       y1="900"
       x2="1500"
       y2="870"
       id="line21" />
    <line
       x1="1500"
       y1="870"
       x2="1700"
       y2="910"
       id="line22" />
    <line
       x1="1700"
       y1="910"
       x2="1880"
       y2="880"
       id="line23" />
    <circle
       cx="1300"
       cy="900"
       r="5"
       fill="#3a5a7a"
       id="circle23" />
    <circle
       cx="1500"
       cy="870"
       r="5"
       fill="#3a5a7a"
       id="circle24" />
    <circle
       cx="1700"
       cy="910"
       r="5"
       fill="#3a5a7a"
       id="circle25" />
    <circle
       cx="1880"
       cy="880"
       r="5"
       fill="#3a5a7a"
       id="circle26" />
  </g>
  <!-- ======== DESK ======== -->
  <!-- ======== MONITOR ======== -->
  <!-- Monitor bezel -->
  <!-- Screen -->
  <!-- Terminal content -->
  <!-- Cursor block -->
  <!-- ======== TUX — top right corner of screen ======== -->
  <g
     transform="matrix(4.9884733,0,0,4.9058894,831.85358,382.94339)"
     id="g45">
    <ellipse
       cx="22"
       cy="38"
       rx="16"
       ry="21"
       fill="none"
       stroke="#5ac87a"
       stroke-width="1.8"
       id="ellipse36" />
    <ellipse
       cx="22"
       cy="42"
       rx="9"
       ry="13"
       fill="none"
       stroke="#5ac87a"
       stroke-width="1.2"
       id="ellipse37" />
    <circle
       cx="22"
       cy="16"
       r="13"
       fill="none"
       stroke="#5ac87a"
       stroke-width="1.8"
       id="circle37" />
    <circle
       cx="17"
       cy="13"
       r="2"
       fill="none"
       stroke="#5ac87a"
       stroke-width="1.2"
       id="circle38" />
    <circle
       cx="17"
       cy="13"
       r="0.80000001"
       fill="#5ac87a"
       id="circle39" />
    <circle
       cx="27"
       cy="13"
       r="2"
       fill="none"
       stroke="#5ac87a"
       stroke-width="1.2"
       id="circle40" />
    <circle
       cx="27"
       cy="13"
       r="0.80000001"
       fill="#5ac87a"
       id="circle41" />
    <path
       d="m 19,20 3,6 3,-6 z"
       fill="none"
       stroke="#5ac87a"
       stroke-width="1.4"
       stroke-linejoin="round"
       id="path41" />
    <path
       d="M 6,32 C 0,38 2,52 8,56"
       fill="none"
       stroke="#5ac87a"
       stroke-width="1.6"
       stroke-linecap="round"
       id="path42" />
    <path
       d="m 38,32 c 6,6 4,20 -2,24"
       fill="none"
       stroke="#5ac87a"
       stroke-width="1.6"
       stroke-linecap="round"
       id="path43" />
    <path
       d="m 15,58 -5,7 m 5,-7 -1,8 m 1,-8 3,7"
       fill="none"
       stroke="#5ac87a"
       stroke-width="1.3"
       stroke-linecap="round"
       id="path44" />
    <path
       d="m 29,58 -5,7 m 5,-7 v 8 m 0,-8 5,7"
       fill="none"
       stroke="#5ac87a"
       stroke-width="1.3"
       stroke-linecap="round"
       id="path45" />
  </g>
  <!-- ======== KEYBOARD ======== -->
  <!-- Cable monitor -> keyboard -->
  <!-- ======== MOUSE ======== -->
  <!-- Cable monitor -> mouse -->
  <!-- Mouse body -->
  <!-- Button divider -->
  <!-- Scroll wheel -->
  <!-- ======== COMMUNITY ICONS ======== -->
  <!-- ======== TITLE TEXT ======== -->
  <text
     x="960"
     y="824"
     font-family="monospace"
     font-size="100px"
     font-weight="bold"
     fill="none"
     stroke="#5ac87a"
     stroke-width="2.5"
     text-anchor="middle"
     letter-spacing="8"
     id="text60">SleepyLinux</text>
  <text
     x="960"
     y="888"
     font-family="monospace"
     font-size="32px"
     fill="#5ac87a"
     opacity="0.65"
     text-anchor="middle"
     letter-spacing="6"
     id="text61">https://sleepy.hu</text>
  <line
     x1="580"
     y1="908"
     x2="1340"
     y2="908"
     stroke="#5ac87a"
     stroke-width="1.5"
     opacity="0.4"
     id="line61" />
</svg>
